<?xml version="1.0" encoding="UTF-8"?>
<svg version="1.1" xmlns="http://www.w3.org/2000/svg" width="459" height="122">
<path d="M0 0 C151.47 0 302.94 0 459 0 C459 40.26 459 80.52 459 122 C307.53 122 156.06 122 0 122 C0 81.74 0 41.48 0 0 Z " fill="#FDFCFD" transform="translate(0,0)"/>
<path d="M0 0 C1.70703125 1.4296875 1.70703125 1.4296875 3.70703125 4.4296875 C3.00847519 5.12602295 2.30991913 5.8223584 1.5901947 6.53979492 C-5.01783008 13.12747925 -11.62316046 19.71785476 -18.22591496 26.31082153 C-21.6198978 29.69960314 -25.01479722 33.08745543 -28.41186523 36.47314453 C-31.69495276 39.74530462 -34.97553582 43.01995698 -38.25445366 46.29629517 C-39.50097648 47.54098141 -40.74837377 48.78479259 -41.99669075 50.02767944 C-47.81210401 55.81881773 -53.59429771 61.57805628 -58.92207336 67.82849121 C-62.18697794 71.64187708 -65.80944433 75.1307056 -69.35546875 78.6796875 C-70.13212891 79.46859375 -70.90878906 80.2575 -71.70898438 81.0703125 C-79.76315463 89.14494212 -85.47998845 92.78030892 -97.09277344 92.88720703 C-103.48886337 92.74703064 -107.72311314 91.04156478 -112.29296875 86.4296875 C-116.28721762 81.41127226 -118.5746819 76.56330851 -118.66796875 70.1171875 C-118.69632813 69.23417969 -118.7246875 68.35117188 -118.75390625 67.44140625 C-117.33999553 58.2030574 -110.96846628 52.59664511 -104.55859375 46.375 C-103.59595598 45.42494071 -102.63436621 44.4738185 -101.67376709 43.521698 C-99.15357711 41.02795747 -96.62248734 38.54561561 -94.08789062 36.06652832 C-90.04480764 32.11001894 -86.01507647 28.14004462 -81.99224091 24.16296005 C-80.60149258 22.79227981 -79.20347309 21.42898941 -77.80523682 20.06594849 C-72.84515728 15.18056097 -68.34118377 10.20285763 -64.15814209 4.63278198 C-47.78402491 -14.70790151 -19.2271156 -13.19857657 0 0 Z " fill="#F63D5C" transform="translate(135.29296875,29.5703125)"/>
<path d="M0 0 C6.31875639 2.83002217 10.10706241 7.79427483 13.3984375 13.71875 C15.7810339 21.39600507 14.86952542 26.61448684 11.18719482 33.68304443 C8.22065685 38.42717628 4.31840695 42.13846247 0.3125 46.0078125 C-1.01704208 47.32318497 -1.01704208 47.32318497 -2.3734436 48.66513062 C-4.71283999 50.97596985 -7.06232705 53.2758109 -9.41790771 55.57012939 C-12.72722776 58.79857968 -16.01674557 62.04720544 -19.30825806 65.29379272 C-21.05490569 67.01434055 -22.8054767 68.73091796 -24.56063843 70.44277954 C-28.87681682 74.67193494 -33.01801216 78.96321562 -36.93057251 83.57015991 C-45.3998829 93.28631917 -56.6401459 98.56450141 -69.484375 99.58203125 C-81.56318832 99.86962204 -91.68328142 96.44033049 -101.4765625 89.34375 C-102.83756839 88.03867586 -104.17908457 86.71199946 -105.4765625 85.34375 C-104.98027344 84.8590625 -104.48398438 84.374375 -103.97265625 83.875 C-103.29332031 83.2046875 -102.61398438 82.534375 -101.9140625 81.84375 C-100.92212891 80.86921875 -100.92212891 80.86921875 -99.91015625 79.875 C-98.04301203 77.93293025 -96.30299103 75.9784003 -94.56054688 73.92993164 C-89.53665047 68.17511875 -84.10355322 62.82653159 -78.69921875 57.43359375 C-77.56239004 56.29608967 -76.42570967 55.15843733 -75.28916931 54.02064514 C-72.91811329 51.64812314 -70.54527977 49.27739759 -68.17114258 46.90795898 C-65.14757789 43.89009088 -62.12852617 40.86775424 -59.11080265 37.84404659 C-56.76786417 35.49747268 -54.4225221 33.15331265 -52.07647514 30.80984688 C-50.96311766 29.69715043 -49.85048569 28.5837275 -48.73863411 27.46952629 C-43.31566895 22.03761452 -37.8899648 16.66080484 -32.03443909 11.68830872 C-29.33797931 9.36107142 -26.95663392 6.74296826 -24.53125 4.140625 C-17.64445301 -1.88204917 -8.62550276 -2.28562218 0 0 Z " fill="#2C8BE9" transform="translate(177.4765625,15.65625)"/>
<path d="M0 0 C0 3.31855925 -0.79074981 5.1764891 -2 8.25 C-5.97146351 20.00836874 -4.80502798 31.67071384 0 43 C1.81811182 46.47007764 3.84324074 49.73322863 6 53 C7.00651746 54.66273882 8.00823504 56.32841989 9 58 C6.63349244 60.4251068 4.25533103 62.83846613 1.875 65.25 C1.20984375 65.93191406 0.5446875 66.61382812 -0.140625 67.31640625 C-7.85379115 75.10519168 -13.67219651 78.35508757 -24.79980469 78.45751953 C-31.19589462 78.31734314 -35.43014439 76.61187728 -40 72 C-43.99424887 66.98158476 -46.28171315 62.13362101 -46.375 55.6875 C-46.40335938 54.80449219 -46.43171875 53.92148438 -46.4609375 53.01171875 C-45.05847182 43.84815064 -38.76344797 38.22703804 -32.421875 32.03125 C-31.4953009 31.11033569 -30.56872681 30.18942139 -29.61407471 29.24060059 C-27.17007482 26.811754 -24.7143008 24.3951709 -22.2557373 21.9810791 C-19.74128594 19.5078048 -17.23835014 17.0229346 -14.734375 14.5390625 C-9.83402505 9.68140101 -4.92111831 4.83661832 0 0 Z " fill="#FE9D02" transform="translate(63,44)"/>
<path d="M0 0 C6.31875639 2.83002217 10.10706241 7.79427483 13.3984375 13.71875 C15.78847027 21.41996672 14.85351398 26.61804529 11.1625061 33.70550537 C8.30980447 38.29721358 4.5892151 41.89014541 0.72265625 45.6328125 C-0.11371872 46.46211273 -0.95009369 47.29141296 -1.81181335 48.14584351 C-4.45929158 50.76556034 -7.12369405 53.36725013 -9.7890625 55.96875 C-11.59815728 57.75273871 -13.40611199 59.53788434 -15.21289062 61.32421875 C-19.62102299 65.67752392 -24.04314805 70.01620283 -28.4765625 74.34375 C-29.87509162 70.14816263 -28.24919386 68.29808149 -26.4765625 64.34375 C-23.55950141 52.6366115 -25.1454071 39.08903923 -30.8515625 28.46875 C-33.19435334 24.61631887 -35.78449005 20.95881871 -38.4765625 17.34375 C-37.991875 16.93125 -37.5071875 16.51875 -37.0078125 16.09375 C-32.60937694 12.30432859 -28.49045274 8.38869661 -24.53125 4.140625 C-17.64445301 -1.88204917 -8.62550276 -2.28562218 0 0 Z " fill="#48CAED" transform="translate(177.4765625,15.65625)"/>
<path d="M0 0 C4.62 0 9.24 0 14 0 C14 1.65 14 3.3 14 5 C13.01 5 12.02 5 11 5 C11.33 6.32 11.66 7.64 12 9 C15.0279691 5.59353476 15 4.9819505 15 0 C19.29 0 23.58 0 28 0 C28 1.65 28 3.3 28 5 C26.02 5.99 24.04 6.98 22 8 C23.75614152 12.97573431 26.25619477 17.25619477 30 21 C30 22.32 30 23.64 30 25 C25.38 25 20.76 25 16 25 C16 23.02 16 21.04 16 19 C15.56058477 16.73433657 15.56058477 16.73433657 15 15 C14.01 15.66 13.02 16.32 12 17 C12.33 19.64 12.66 22.28 13 25 C8.71 25 4.42 25 0 25 C0 23.68 0 22.36 0 21 C0.66 21 1.32 21 2 21 C2 15.72 2 10.44 2 5 C1.34 5 0.68 5 0 5 C0 3.35 0 1.7 0 0 Z " fill="#6F2C75" transform="translate(333,42)"/>
<path d="M0 0 C1.19625 -0.0103125 2.3925 -0.020625 3.625 -0.03125 C7.55870312 0.58794401 9.26542918 1.64113051 12 4.5 C12 5.49 12 6.48 12 7.5 C2.58997722 7.8690205 2.58997722 7.8690205 -2 5.5 C-1.67 6.49 -1.34 7.48 -1 8.5 C1.48930193 9.67779035 1.48930193 9.67779035 4.4375 10.5625 C9.80501931 12.30501931 9.80501931 12.30501931 12 14.5 C12.4423824 18.48144156 12.66305693 20.63116678 10.1875 23.875 C6.45186598 26.65004241 3.15841087 26.71394759 -1.375 26.8125 C-2.49648437 26.84988281 -3.61796875 26.88726562 -4.7734375 26.92578125 C-8.68764076 26.40925806 -10.31914528 25.36660683 -13 22.5 C-13 21.18 -13 19.86 -13 18.5 C-7.5610835 18.28244334 -3.12919186 18.39571616 2 20.5 C2 19.84 2 19.18 2 18.5 C1.33613281 18.34144531 0.67226562 18.18289062 -0.01171875 18.01953125 C-5.49303243 16.57118413 -9.68038572 15.42218669 -13 10.5 C-13.125 7.4375 -13.125 7.4375 -12 4.5 C-8.13509107 0.59969813 -5.42672146 -0.04678208 0 0 Z " fill="#6F2A74" transform="translate(221,41.5)"/>
<path d="M0 0 C3.3 0 6.6 0 10 0 C10 5.61 10 11.22 10 17 C10.99 16.34 11.98 15.68 13 15 C12.67 13.35 12.34 11.7 12 10 C15.96 10 19.92 10 24 10 C24 11.32 24 12.64 24 14 C22.02 14.99 22.02 14.99 20 16 C20.64610681 19.48897679 22.01871317 22.06769549 24 25 C24.66 25.33 25.32 25.66 26 26 C26 26.99 26 27.98 26 29 C21.71 29 17.42 29 13 29 C13 27.02 13 25.04 13 23 C12.34 23 11.68 23 11 23 C11 24.98 11 26.96 11 29 C7.37 29 3.74 29 0 29 C0 28.01 0 27.02 0 26 C0.66 26 1.32 26 2 26 C2 19.07 2 12.14 2 5 C1.34 5 0.68 5 0 5 C0 3.35 0 1.7 0 0 Z " fill="#712E77" transform="translate(241,38)"/>
<path d="M0 0 C3.96 0 7.92 0 12 0 C12 1.32 12 2.64 12 4 C11.34 4 10.68 4 10 4 C10.99 5.65 11.98 7.3 13 9 C14.32 6.03 15.64 3.06 17 0 C18.32 0 19.64 0 21 0 C22.484375 1.75 22.484375 1.75 23.75 4 C24.17796875 4.7425 24.6059375 5.485 25.046875 6.25 C25.36140625 6.8275 25.6759375 7.405 26 8 C26.66 6.68 27.32 5.36 28 4 C27.34 4 26.68 4 26 4 C26 2.68 26 1.36 26 0 C29.3 0 32.6 0 36 0 C36 1.32 36 2.64 36 4 C35.34 4.33 34.68 4.66 34 5 C33.0416631 7.34937742 32.18214554 9.66218055 31.375 12.0625 C31.14554687 12.72572266 30.91609375 13.38894531 30.6796875 14.07226562 C30.11324224 15.71259669 29.55577077 17.35602157 29 19 C25.65234375 19.15625 25.65234375 19.15625 22 19 C19.5625 16.5 19.5625 16.5 18 14 C17.4740625 15.2375 17.4740625 15.2375 16.9375 16.5 C15.9784375 17.7375 15.9784375 17.7375 15 19 C11.37890625 19.15625 11.37890625 19.15625 8 19 C7.59007812 18.00097656 7.18015625 17.00195312 6.7578125 15.97265625 C6.2138927 14.66912431 5.66960265 13.36574681 5.125 12.0625 C4.85558594 11.40314453 4.58617187 10.74378906 4.30859375 10.06445312 C2.95348166 6.35445869 2.95348166 6.35445869 0 4 C0 2.68 0 1.36 0 0 Z " fill="#702C75" transform="translate(369,48)"/>
<path d="M0 0 C6.27 0 12.54 0 19 0 C19 6 19 6 17.28515625 8.08203125 C16.55167969 8.65308594 15.81820313 9.22414063 15.0625 9.8125 C14.33160156 10.39644531 13.60070312 10.98039062 12.84765625 11.58203125 C12.23792969 12.04996094 11.62820313 12.51789062 11 13 C10.67 13.33 10.34 13.66 10 14 C11.32 14 12.64 14 14 14 C14.33 13.34 14.66 12.68 15 12 C16.32 12 17.64 12 19 12 C19 14.31 19 16.62 19 19 C12.73 19 6.46 19 0 19 C0 13 0 13 1.75 10.8828125 C2.4925 10.30273438 3.235 9.72265625 4 9.125 C4.7425 8.52945313 5.485 7.93390625 6.25 7.3203125 C6.8275 6.88460937 7.405 6.44890625 8 6 C6.68 5.67 5.36 5.34 4 5 C4 5.99 4 6.98 4 8 C2.68 8 1.36 8 0 8 C0 5.36 0 2.72 0 0 Z " fill="#702C75" transform="translate(432,48)"/>
<path d="M0 0 C3.3 0 6.6 0 10 0 C10.33 9.57 10.66 19.14 11 29 C7.37 29 3.74 29 0 29 C0 28.01 0 27.02 0 26 C0.66 26 1.32 26 2 26 C2 19.07 2 12.14 2 5 C1.34 5 0.68 5 0 5 C0 3.35 0 1.7 0 0 Z " fill="#733178" transform="translate(294,38)"/>
<path d="M0 0 C2.97 0 5.94 0 9 0 C9.02505615 0.70608398 9.0501123 1.41216797 9.07592773 2.13964844 C9.19207369 5.34327509 9.31471603 8.54662118 9.4375 11.75 C9.47681641 12.86117187 9.51613281 13.97234375 9.55664062 15.1171875 C9.61948242 16.72207031 9.61948242 16.72207031 9.68359375 18.359375 C9.72025146 19.34389648 9.75690918 20.32841797 9.79467773 21.34277344 C9.9452083 24.25421319 9.9452083 24.25421319 11 28 C7.37 28 3.74 28 0 28 C0.33 26.68 0.66 25.36 1 24 C1.14298131 22.3413488 1.24541225 20.6789131 1.31640625 19.015625 C1.35830078 18.08105469 1.40019531 17.14648438 1.44335938 16.18359375 C1.48267578 15.21550781 1.52199219 14.24742188 1.5625 13.25 C1.60568359 12.26644531 1.64886719 11.28289063 1.69335938 10.26953125 C1.79922052 7.84648725 1.90130171 5.4233446 2 3 C1.34 3 0.68 3 0 3 C0 2.01 0 1.02 0 0 Z " fill="#69226F" transform="translate(314,39)"/>
<path d="M0 0 C3.96 0 7.92 0 12 0 C12 1.32 12 2.64 12 4 C11.34 4 10.68 4 10 4 C10 7.96 10 11.92 10 16 C10.66 16 11.32 16 12 16 C12 17.32 12 18.64 12 20 C8.04 20 4.08 20 0 20 C0 18.68 0 17.36 0 16 C0.66 16 1.32 16 2 16 C2 12.04 2 8.08 2 4 C1.34 4 0.68 4 0 4 C0 2.68 0 1.36 0 0 Z " fill="#77377C" transform="translate(411,48)"/>
<path d="M0 0 C3.96 0 7.92 0 12 0 C12 1.32 12 2.64 12 4 C11.34 4 10.68 4 10 4 C10 7.96 10 11.92 10 16 C10.66 16 11.32 16 12 16 C12 16.99 12 17.98 12 19 C8.04 19 4.08 19 0 19 C0 18.01 0 17.02 0 16 C0.66 16 1.32 16 2 16 C2 12.04 2 8.08 2 4 C1.34 4 0.68 4 0 4 C0 2.68 0 1.36 0 0 Z " fill="#722F77" transform="translate(274,48)"/>
<path d="M0 0 C0.66 0 1.32 0 2 0 C2.97040422 5.93024803 2.89316269 11.06390334 2 17 C0.68 17 -0.64 17 -2 17 C-3.010625 17.061875 -4.02125 17.12375 -5.0625 17.1875 C-8 17 -8 17 -9.875 15.8125 C-11.40659584 13.34492892 -11.42822025 11.85480169 -11 9 C-9.875 7.1875 -9.875 7.1875 -8 6 C-4.875 5.75 -4.875 5.75 -2 6 C-1.67 6.33 -1.34 6.66 -1 7 C-0.67 4.69 -0.34 2.38 0 0 Z " fill="#979797" transform="translate(297,78)"/>
<path d="M0 0 C0.66 0 1.32 0 2 0 C2 5.61 2 11.22 2 17 C0.39125 17.061875 -1.2175 17.12375 -2.875 17.1875 C-3.77992188 17.22230469 -4.68484375 17.25710937 -5.6171875 17.29296875 C-6.79667969 17.14794922 -6.79667969 17.14794922 -8 17 C-10 14 -10 14 -9.6875 10.375 C-9 7 -9 7 -8 6 C-5.66702567 5.95907063 -3.33294775 5.95758277 -1 6 C-0.67 4.02 -0.34 2.04 0 0 Z " fill="#393939" transform="translate(328,78)"/>
<path d="M0 0 C1.875 1.1875 1.875 1.1875 3 3 C3.42822025 5.85480169 3.40659584 7.34492892 1.875 9.8125 C-0.87155972 11.55198782 -2.81846974 11.39769128 -6 11 C-7.9375 9.9375 -7.9375 9.9375 -9 8 C-8.8125 4.375 -8.8125 4.375 -8 1 C-5.20129973 -0.39935013 -3.09501208 -0.25265405 0 0 Z " fill="#9A9A9A" transform="translate(429,84)"/>
<path d="M0 0 C1.9375 1.0625 1.9375 1.0625 3 3 C2.8125 6.625 2.8125 6.625 2 10 C-0.79870027 11.39935013 -2.90498792 11.25265405 -6 11 C-7.875 9.8125 -7.875 9.8125 -9 8 C-9.42822025 5.14519831 -9.40659584 3.65507108 -7.875 1.1875 C-5.12844028 -0.55198782 -3.18153026 -0.39769128 0 0 Z " fill="#9B9B9B" transform="translate(227,84)"/>
<path d="M0 0 C3.5 -0.3125 3.5 -0.3125 7 0 C9 2 9 2 9.25 5.5 C9 9 9 9 7 11 C3.5 11.25 3.5 11.25 0 11 C-2 9 -2 9 -2.25 6.0625 C-2 3 -2 3 0 0 Z " fill="#9B9B9B" transform="translate(366,84)"/>
<path d="M0 0 C3.5 0.25 3.5 0.25 5.5 2.25 C5.84490322 6.30261287 5.80163882 7.79754176 3.5 11.25 C0 11.5625 0 11.5625 -3.5 11.25 C-5.5 9.25 -5.5 9.25 -5.75 5.75 C-5.40898007 0.975721 -4.774279 0.34101993 0 0 Z " fill="#9B9B9B" transform="translate(337.5,83.75)"/>
<path d="M0 0 C2.34058637 2.12780579 3.70700306 4.11562221 5 7 C5 4.69 5 2.38 5 0 C6.66666667 0 8.33333333 0 10 0 C9.67 2.31 9.34 4.62 9 7 C9.66 7 10.32 7 11 7 C11.66 4.69 12.32 2.38 13 0 C13.66 0 14.32 0 15 0 C13.7874262 3.72433382 12.49140021 7.37802806 11 11 C10.34 11 9.68 11 9 11 C8.34 10.01 7.68 9.02 7 8 C6.01 8.99 5.02 9.98 4 11 C3.32591692 9.73308493 2.66099503 8.46129251 2 7.1875 C1.62875 6.47980469 1.2575 5.77210937 0.875 5.04296875 C0 3 0 3 0 0 Z " fill="#2F2F2F" transform="translate(231,84)"/>
<path d="M0 0 C0.99 0.33 1.98 0.66 3 1 C4.1875 3.5625 4.1875 3.5625 5 6 C5.33 5.01 5.66 4.02 6 3 C6.33 2.01 6.66 1.02 7 0 C8.32 0.33 9.64 0.66 11 1 C10.814375 1.804375 10.62875 2.60875 10.4375 3.4375 C10.2209375 4.7059375 10.2209375 4.7059375 10 6 C10.33 6.33 10.66 6.66 11 7 C11.99 4.69 12.98 2.38 14 0 C14.66 0 15.32 0 16 0 C14.77472971 4.05281712 13.30119506 7.44360764 11 11 C10.01 10.01 9.02 9.02 8 8 C7.01 8.99 6.02 9.98 5 11 C4.16426177 9.35538655 3.33147118 7.70927487 2.5 6.0625 C2.0359375 5.14597656 1.571875 4.22945313 1.09375 3.28515625 C0 1 0 1 0 0 Z " fill="#2A2A2A" transform="translate(432,84)"/>
<path d="M0 0 C1 1 1 1 1.1875 3.4375 C1 6 1 6 -1 8 C-4.29714793 7.67028521 -5.6226839 7.3773161 -8 5 C-7.75 2.4375 -7.75 2.4375 -7 0 C-4.31633121 -1.3418344 -2.84719317 -0.73004953 0 0 Z " fill="#EFEFEF" transform="translate(327,86)"/>
<path d="M0 0 C0.66 0 1.32 0 2 0 C2 2.64 2 5.28 2 8 C4.97 8 7.94 8 11 8 C11 5.36 11 2.72 11 0 C11.33 0 11.66 0 12 0 C12 5.61 12 11.22 12 17 C11.67 17 11.34 17 11 17 C11 14.36 11 11.72 11 9 C8.03 9 5.06 9 2 9 C2 11.64 2 14.28 2 17 C1.34 17 0.68 17 0 17 C0 11.39 0 5.78 0 0 Z " fill="#212121" transform="translate(204,78)"/>
<path d="M0 0 C6.75 -0.125 6.75 -0.125 9 1 C9 4.3 9 7.6 9 11 C8.34 11 7.68 11 7 11 C6.67 8.03 6.34 5.06 6 2 C5.01 2 4.02 2 3 2 C2.67 4.97 2.34 7.94 2 11 C1.34 11 0.68 11 0 11 C0 7.37 0 3.74 0 0 Z " fill="#2D2D2D" transform="translate(257,84)"/>
<path d="M0 0 C6.0546875 -0.1953125 6.0546875 -0.1953125 8 0 C10 2 10 2 10.1953125 4.1640625 C10.17210937 4.97617188 10.14890625 5.78828125 10.125 6.625 C10.10695313 7.44226563 10.08890625 8.25953125 10.0703125 9.1015625 C10.03550781 10.04128906 10.03550781 10.04128906 10 11 C9.34 11 8.68 11 8 11 C7.67 8.03 7.34 5.06 7 2 C5.68 2 4.36 2 3 2 C2.67 4.97 2.34 7.94 2 11 C1.34 11 0.68 11 0 11 C0 7.37 0 3.74 0 0 Z " fill="#363636" transform="translate(408,84)"/>
<path d="M0 0 C0.66 0 1.32 0 2 0 C2.33 2.64 2.66 5.28 3 8 C4.32 8.33 5.64 8.66 7 9 C7.33 6.03 7.66 3.06 8 0 C8.66 0 9.32 0 10 0 C10.05399736 1.45792884 10.09279177 2.91642712 10.125 4.375 C10.14820313 5.18710938 10.17140625 5.99921875 10.1953125 6.8359375 C10 9 10 9 8 11 C5 11.3125 5 11.3125 2 11 C-0.67927341 6.98108988 -0.15601248 4.75838077 0 0 Z " fill="#373737" transform="translate(377,84)"/>
<path d="M0 0 C0.33 0 0.66 0 1 0 C1 3.3 1 6.6 1 10 C2.98 8.68 4.96 7.36 7 6 C6.34 7.98 5.68 9.96 5 12 C5.495 12.45375 5.99 12.9075 6.5 13.375 C8 15 8 15 8 17 C4.66462511 15.88820837 3.36292656 14.52588702 1 12 C1 13.65 1 15.3 1 17 C0.67 17 0.34 17 0 17 C0 11.39 0 5.78 0 0 Z " fill="#1B1B1B" transform="translate(399,78)"/>
<path d="M0 0 C1.2065625 0.0309375 1.2065625 0.0309375 2.4375 0.0625 C3.0625 2.4375 3.0625 2.4375 3.4375 5.0625 C2.7775 5.7225 2.1175 6.3825 1.4375 7.0625 C-0.6875 6.6875 -0.6875 6.6875 -2.5625 6.0625 C-2.94468767 4.40635343 -3.27645102 2.73792976 -3.5625 1.0625 C-2.5625 0.0625 -2.5625 0.0625 0 0 Z " fill="#76367C" transform="translate(417.5625,38.9375)"/>
<path d="M0 0 C0.33 0 0.66 0 1 0 C1.33 2.64 1.66 5.28 2 8 C3.32 8.33 4.64 8.66 6 9 C6.33 6.03 6.66 3.06 7 0 C7.66 0 8.32 0 9 0 C9.05399736 1.45792884 9.09279177 2.91642712 9.125 4.375 C9.14820313 5.18710938 9.17140625 5.99921875 9.1953125 6.8359375 C9 9 9 9 7 11 C3.9375 11.1875 3.9375 11.1875 1 11 C0 10 0 10 -0.09765625 7.71484375 C-0.08605469 6.79832031 -0.07445312 5.88179688 -0.0625 4.9375 C-0.05347656 4.01839844 -0.04445313 3.09929687 -0.03515625 2.15234375 C-0.02355469 1.44207031 -0.01195312 0.73179688 0 0 Z " fill="#282828" transform="translate(275,84)"/>
<path d="M0 0 C1.67542976 0.28604898 3.34385343 0.61781233 5 1 C5.625 2.875 5.625 2.875 6 5 C5.34 5.66 4.68 6.32 4 7 C1.875 6.625 1.875 6.625 0 6 C-0.38218767 4.34385343 -0.71395102 2.67542976 -1 1 C-0.67 0.67 -0.34 0.34 0 0 Z " fill="#74337A" transform="translate(278,39)"/>
<path d="M0 0 C0.66 0 1.32 0 2 0 C4.21538462 5.41538462 4.21538462 5.41538462 3.125 8.375 C2.75375 8.91125 2.3825 9.4475 2 10 C1.34 10 0.68 10 0 10 C-2.08207071 5.59090909 -2.08207071 5.59090909 -1.6875 2.75 C-1 1 -1 1 0 0 Z " fill="#E9DFEA" transform="translate(346,57)"/>
<path d="M0 0 C0.66 0.33 1.32 0.66 2 1 C2 3.97 2 6.94 2 10 C0.35 8.68 -1.3 7.36 -3 6 C-2 4 -1 2 0 0 Z " fill="#F6F6F6" transform="translate(406,84)"/>
<path d="M0 0 C0.639375 0.144375 1.27875 0.28875 1.9375 0.4375 C5.93844788 1.17236798 9.95504896 1.58581111 14 2 C14 2.33 14 2.66 14 3 C12.72125 3.144375 11.4425 3.28875 10.125 3.4375 C7.74307106 3.70642746 6.15547309 3.92226346 4 5 C1.875 4.0625 1.875 4.0625 0 3 C0 2.01 0 1.02 0 0 Z " fill="#DCCCDD" transform="translate(219,47)"/>
<path d="M0 0 C3.625 -0.1875 3.625 -0.1875 7 0 C7.33 0.66 7.66 1.32 8 2 C5.36 2 2.72 2 0 2 C-0.20086443 5.71599191 -0.1519437 6.77208445 2 10 C1.01 10 0.02 10 -1 10 C-2.25 3.375 -2.25 3.375 0 0 Z " fill="#303030" transform="translate(320,84)"/>
<path d="M0 0 C0.99 0.33 1.98 0.66 3 1 C3.66666667 2.66666667 4.33333333 4.33333333 5 6 C5.99 6.33 6.98 6.66 8 7 C7.34 8.32 6.68 9.64 6 11 C3.52140092 8.7991151 2.38789634 6.93627031 1.3125 3.8125 C1.06113281 3.09707031 0.80976563 2.38164063 0.55078125 1.64453125 C0.36902344 1.10183594 0.18726563 0.55914062 0 0 Z " fill="#363636" transform="translate(432,84)"/>
<path d="M0 0 C0.99 0 1.98 0 3 0 C2.67 3.63 2.34 7.26 2 11 C1.34 11 0.68 11 0 11 C0 7.37 0 3.74 0 0 Z " fill="#3D3D3D" transform="translate(257,84)"/>
<path d="M0 0 C0.99 0.33 1.98 0.66 3 1 C2.67 2.98 2.34 4.96 2 7 C1.34 7 0.68 7 0 7 C-0.38133299 5.0085944 -0.71325582 3.00720923 -1 1 C-0.67 0.67 -0.34 0.34 0 0 Z " fill="#F0E9F1" transform="translate(252,60)"/>
<path d="M0 0 C1.66611905 -0.042721 3.33382885 -0.04063832 5 0 C6 1 6 1 6.09765625 3.28515625 C6.08605469 4.20167969 6.07445312 5.11820312 6.0625 6.0625 C6.05347656 6.98160156 6.04445313 7.90070313 6.03515625 8.84765625 C6.02355469 9.55792969 6.01195312 10.26820312 6 11 C5.67 11 5.34 11 5 11 C4.9175 9.741875 4.835 8.48375 4.75 7.1875 C4.33442857 3.66188788 4.33442857 3.66188788 1.9375 1 C1.298125 0.67 0.65875 0.34 0 0 Z " fill="#151515" transform="translate(266,84)"/>
</svg>
